<mxfile host="Electron" modified="2023-11-15T03:25:01.509Z" agent="Mozilla/5.0 (Windows NT 10.0; Win64; x64) AppleWebKit/537.36 (KHTML, like Gecko) draw.io/22.0.3 Chrome/114.0.5735.289 Electron/25.8.4 Safari/537.36" etag="2ccetk9qv55NlqaO9E6J" version="22.0.3" type="device" pages="4">
  <diagram name="Page-1" id="-jS2i4UFr-NuKql0OckS">
    <mxGraphModel dx="1050" dy="629" grid="1" gridSize="10" guides="1" tooltips="1" connect="1" arrows="1" fold="1" page="1" pageScale="1" pageWidth="850" pageHeight="1100" math="0" shadow="0">
      <root>
        <mxCell id="0" />
        <mxCell id="1" parent="0" />
        <mxCell id="IzFt6nqaDhtdbvrA9WyH-3" value="" style="edgeStyle=orthogonalEdgeStyle;rounded=0;orthogonalLoop=1;jettySize=auto;html=1;" edge="1" parent="1" source="IzFt6nqaDhtdbvrA9WyH-1" target="IzFt6nqaDhtdbvrA9WyH-2">
          <mxGeometry relative="1" as="geometry" />
        </mxCell>
        <mxCell id="IzFt6nqaDhtdbvrA9WyH-1" value="start" style="ellipse;whiteSpace=wrap;html=1;" vertex="1" parent="1">
          <mxGeometry x="390" y="40" width="120" height="80" as="geometry" />
        </mxCell>
        <mxCell id="IzFt6nqaDhtdbvrA9WyH-5" value="" style="edgeStyle=orthogonalEdgeStyle;rounded=0;orthogonalLoop=1;jettySize=auto;html=1;" edge="1" parent="1" source="IzFt6nqaDhtdbvrA9WyH-2" target="IzFt6nqaDhtdbvrA9WyH-7">
          <mxGeometry relative="1" as="geometry">
            <mxPoint x="450" y="280" as="targetPoint" />
          </mxGeometry>
        </mxCell>
        <mxCell id="IzFt6nqaDhtdbvrA9WyH-2" value="i" style="shape=parallelogram;perimeter=parallelogramPerimeter;whiteSpace=wrap;html=1;fixedSize=1;" vertex="1" parent="1">
          <mxGeometry x="390" y="170" width="120" height="60" as="geometry" />
        </mxCell>
        <mxCell id="IzFt6nqaDhtdbvrA9WyH-9" value="" style="edgeStyle=orthogonalEdgeStyle;rounded=0;orthogonalLoop=1;jettySize=auto;html=1;" edge="1" parent="1" source="IzFt6nqaDhtdbvrA9WyH-7" target="IzFt6nqaDhtdbvrA9WyH-8">
          <mxGeometry relative="1" as="geometry" />
        </mxCell>
        <mxCell id="IzFt6nqaDhtdbvrA9WyH-7" value="i=1" style="rounded=0;whiteSpace=wrap;html=1;" vertex="1" parent="1">
          <mxGeometry x="390" y="280" width="120" height="60" as="geometry" />
        </mxCell>
        <mxCell id="IzFt6nqaDhtdbvrA9WyH-11" value="" style="edgeStyle=orthogonalEdgeStyle;rounded=0;orthogonalLoop=1;jettySize=auto;html=1;" edge="1" parent="1" source="IzFt6nqaDhtdbvrA9WyH-8" target="IzFt6nqaDhtdbvrA9WyH-13">
          <mxGeometry relative="1" as="geometry">
            <mxPoint x="450" y="480" as="targetPoint" />
          </mxGeometry>
        </mxCell>
        <mxCell id="IzFt6nqaDhtdbvrA9WyH-12" value="true" style="edgeLabel;html=1;align=center;verticalAlign=middle;resizable=0;points=[];" vertex="1" connectable="0" parent="IzFt6nqaDhtdbvrA9WyH-11">
          <mxGeometry x="-0.2951" y="-1" relative="1" as="geometry">
            <mxPoint as="offset" />
          </mxGeometry>
        </mxCell>
        <mxCell id="IzFt6nqaDhtdbvrA9WyH-40" value="" style="edgeStyle=orthogonalEdgeStyle;rounded=0;orthogonalLoop=1;jettySize=auto;html=1;" edge="1" parent="1" source="IzFt6nqaDhtdbvrA9WyH-8" target="IzFt6nqaDhtdbvrA9WyH-39">
          <mxGeometry relative="1" as="geometry">
            <Array as="points">
              <mxPoint x="270" y="400" />
              <mxPoint x="270" y="930" />
            </Array>
          </mxGeometry>
        </mxCell>
        <mxCell id="IzFt6nqaDhtdbvrA9WyH-41" value="false" style="edgeLabel;html=1;align=center;verticalAlign=middle;resizable=0;points=[];" vertex="1" connectable="0" parent="IzFt6nqaDhtdbvrA9WyH-40">
          <mxGeometry x="-0.8164" y="-1" relative="1" as="geometry">
            <mxPoint as="offset" />
          </mxGeometry>
        </mxCell>
        <mxCell id="IzFt6nqaDhtdbvrA9WyH-8" value="i&amp;lt;1000" style="rhombus;whiteSpace=wrap;html=1;rounded=0;" vertex="1" parent="1">
          <mxGeometry x="400" y="370" width="100" height="60" as="geometry" />
        </mxCell>
        <mxCell id="IzFt6nqaDhtdbvrA9WyH-15" value="" style="edgeStyle=orthogonalEdgeStyle;rounded=0;orthogonalLoop=1;jettySize=auto;html=1;" edge="1" parent="1" source="IzFt6nqaDhtdbvrA9WyH-13" target="IzFt6nqaDhtdbvrA9WyH-14">
          <mxGeometry relative="1" as="geometry" />
        </mxCell>
        <mxCell id="IzFt6nqaDhtdbvrA9WyH-38" value="true" style="edgeLabel;html=1;align=center;verticalAlign=middle;resizable=0;points=[];" vertex="1" connectable="0" parent="IzFt6nqaDhtdbvrA9WyH-15">
          <mxGeometry x="0.12" y="2" relative="1" as="geometry">
            <mxPoint as="offset" />
          </mxGeometry>
        </mxCell>
        <mxCell id="IzFt6nqaDhtdbvrA9WyH-17" value="" style="edgeStyle=orthogonalEdgeStyle;rounded=0;orthogonalLoop=1;jettySize=auto;html=1;" edge="1" parent="1" source="IzFt6nqaDhtdbvrA9WyH-13" target="IzFt6nqaDhtdbvrA9WyH-16">
          <mxGeometry relative="1" as="geometry" />
        </mxCell>
        <mxCell id="IzFt6nqaDhtdbvrA9WyH-33" value="false" style="edgeLabel;html=1;align=center;verticalAlign=middle;resizable=0;points=[];" vertex="1" connectable="0" parent="IzFt6nqaDhtdbvrA9WyH-17">
          <mxGeometry x="-0.336" y="2" relative="1" as="geometry">
            <mxPoint as="offset" />
          </mxGeometry>
        </mxCell>
        <mxCell id="IzFt6nqaDhtdbvrA9WyH-13" value="i%3==0&lt;br&gt;&amp;amp;&lt;br&gt;i%5!=0" style="rhombus;whiteSpace=wrap;html=1;" vertex="1" parent="1">
          <mxGeometry x="400" y="480" width="100" height="60" as="geometry" />
        </mxCell>
        <mxCell id="IzFt6nqaDhtdbvrA9WyH-28" style="edgeStyle=orthogonalEdgeStyle;rounded=0;orthogonalLoop=1;jettySize=auto;html=1;exitX=1;exitY=0.5;exitDx=0;exitDy=0;" edge="1" parent="1" source="IzFt6nqaDhtdbvrA9WyH-14" target="IzFt6nqaDhtdbvrA9WyH-27">
          <mxGeometry relative="1" as="geometry">
            <Array as="points">
              <mxPoint x="780" y="510" />
              <mxPoint x="780" y="400" />
            </Array>
          </mxGeometry>
        </mxCell>
        <mxCell id="IzFt6nqaDhtdbvrA9WyH-14" value="printf(&quot;bizz&quot;)" style="whiteSpace=wrap;html=1;" vertex="1" parent="1">
          <mxGeometry x="570" y="480" width="120" height="60" as="geometry" />
        </mxCell>
        <mxCell id="IzFt6nqaDhtdbvrA9WyH-19" value="" style="edgeStyle=orthogonalEdgeStyle;rounded=0;orthogonalLoop=1;jettySize=auto;html=1;" edge="1" parent="1" source="IzFt6nqaDhtdbvrA9WyH-16" target="IzFt6nqaDhtdbvrA9WyH-18">
          <mxGeometry relative="1" as="geometry" />
        </mxCell>
        <mxCell id="IzFt6nqaDhtdbvrA9WyH-37" value="true" style="edgeLabel;html=1;align=center;verticalAlign=middle;resizable=0;points=[];" vertex="1" connectable="0" parent="IzFt6nqaDhtdbvrA9WyH-19">
          <mxGeometry x="-0.1371" y="2" relative="1" as="geometry">
            <mxPoint as="offset" />
          </mxGeometry>
        </mxCell>
        <mxCell id="IzFt6nqaDhtdbvrA9WyH-21" value="" style="edgeStyle=orthogonalEdgeStyle;rounded=0;orthogonalLoop=1;jettySize=auto;html=1;" edge="1" parent="1" source="IzFt6nqaDhtdbvrA9WyH-16" target="IzFt6nqaDhtdbvrA9WyH-20">
          <mxGeometry relative="1" as="geometry" />
        </mxCell>
        <mxCell id="IzFt6nqaDhtdbvrA9WyH-34" value="false" style="edgeLabel;html=1;align=center;verticalAlign=middle;resizable=0;points=[];" vertex="1" connectable="0" parent="IzFt6nqaDhtdbvrA9WyH-21">
          <mxGeometry x="-0.096" y="3" relative="1" as="geometry">
            <mxPoint as="offset" />
          </mxGeometry>
        </mxCell>
        <mxCell id="IzFt6nqaDhtdbvrA9WyH-16" value="i%5==0&lt;br&gt;&amp;amp;&lt;br&gt;i%3!=0" style="rhombus;whiteSpace=wrap;html=1;" vertex="1" parent="1">
          <mxGeometry x="400" y="590" width="100" height="60" as="geometry" />
        </mxCell>
        <mxCell id="IzFt6nqaDhtdbvrA9WyH-29" style="edgeStyle=orthogonalEdgeStyle;rounded=0;orthogonalLoop=1;jettySize=auto;html=1;exitX=1;exitY=0.5;exitDx=0;exitDy=0;" edge="1" parent="1" source="IzFt6nqaDhtdbvrA9WyH-18" target="IzFt6nqaDhtdbvrA9WyH-27">
          <mxGeometry relative="1" as="geometry">
            <Array as="points">
              <mxPoint x="780" y="620" />
              <mxPoint x="780" y="400" />
            </Array>
          </mxGeometry>
        </mxCell>
        <mxCell id="IzFt6nqaDhtdbvrA9WyH-18" value="printf(&quot;buzz&quot;)" style="whiteSpace=wrap;html=1;" vertex="1" parent="1">
          <mxGeometry x="570" y="590" width="120" height="60" as="geometry" />
        </mxCell>
        <mxCell id="IzFt6nqaDhtdbvrA9WyH-23" style="edgeStyle=orthogonalEdgeStyle;rounded=0;orthogonalLoop=1;jettySize=auto;html=1;exitX=1;exitY=0.5;exitDx=0;exitDy=0;" edge="1" parent="1" source="IzFt6nqaDhtdbvrA9WyH-20" target="IzFt6nqaDhtdbvrA9WyH-22">
          <mxGeometry relative="1" as="geometry" />
        </mxCell>
        <mxCell id="IzFt6nqaDhtdbvrA9WyH-36" value="true" style="edgeLabel;html=1;align=center;verticalAlign=middle;resizable=0;points=[];" vertex="1" connectable="0" parent="IzFt6nqaDhtdbvrA9WyH-23">
          <mxGeometry x="0.0057" y="4" relative="1" as="geometry">
            <mxPoint as="offset" />
          </mxGeometry>
        </mxCell>
        <mxCell id="IzFt6nqaDhtdbvrA9WyH-25" value="" style="edgeStyle=orthogonalEdgeStyle;rounded=0;orthogonalLoop=1;jettySize=auto;html=1;" edge="1" parent="1" source="IzFt6nqaDhtdbvrA9WyH-20" target="IzFt6nqaDhtdbvrA9WyH-24">
          <mxGeometry relative="1" as="geometry">
            <Array as="points">
              <mxPoint x="450" y="840" />
            </Array>
          </mxGeometry>
        </mxCell>
        <mxCell id="IzFt6nqaDhtdbvrA9WyH-35" value="false" style="edgeLabel;html=1;align=center;verticalAlign=middle;resizable=0;points=[];" vertex="1" connectable="0" parent="IzFt6nqaDhtdbvrA9WyH-25">
          <mxGeometry x="-0.618" y="2" relative="1" as="geometry">
            <mxPoint as="offset" />
          </mxGeometry>
        </mxCell>
        <mxCell id="IzFt6nqaDhtdbvrA9WyH-20" value="i%5==0&lt;br&gt;&amp;amp;&lt;br&gt;i%3==0" style="rhombus;whiteSpace=wrap;html=1;" vertex="1" parent="1">
          <mxGeometry x="400" y="700" width="100" height="60" as="geometry" />
        </mxCell>
        <mxCell id="IzFt6nqaDhtdbvrA9WyH-30" style="edgeStyle=orthogonalEdgeStyle;rounded=0;orthogonalLoop=1;jettySize=auto;html=1;exitX=1;exitY=0.5;exitDx=0;exitDy=0;" edge="1" parent="1" source="IzFt6nqaDhtdbvrA9WyH-22" target="IzFt6nqaDhtdbvrA9WyH-27">
          <mxGeometry relative="1" as="geometry">
            <Array as="points">
              <mxPoint x="780" y="730" />
              <mxPoint x="780" y="400" />
            </Array>
          </mxGeometry>
        </mxCell>
        <mxCell id="IzFt6nqaDhtdbvrA9WyH-22" value="printf(&quot;bizzbuzz&quot;)" style="whiteSpace=wrap;html=1;" vertex="1" parent="1">
          <mxGeometry x="570" y="700" width="120" height="60" as="geometry" />
        </mxCell>
        <mxCell id="IzFt6nqaDhtdbvrA9WyH-31" style="edgeStyle=orthogonalEdgeStyle;rounded=0;orthogonalLoop=1;jettySize=auto;html=1;exitX=1;exitY=0.5;exitDx=0;exitDy=0;" edge="1" parent="1" source="IzFt6nqaDhtdbvrA9WyH-24" target="IzFt6nqaDhtdbvrA9WyH-27">
          <mxGeometry relative="1" as="geometry">
            <Array as="points">
              <mxPoint x="780" y="840" />
              <mxPoint x="780" y="400" />
            </Array>
          </mxGeometry>
        </mxCell>
        <mxCell id="IzFt6nqaDhtdbvrA9WyH-24" value="printf{&quot;%d&quot;,i)" style="whiteSpace=wrap;html=1;" vertex="1" parent="1">
          <mxGeometry x="570" y="810" width="120" height="60" as="geometry" />
        </mxCell>
        <mxCell id="IzFt6nqaDhtdbvrA9WyH-32" style="edgeStyle=orthogonalEdgeStyle;rounded=0;orthogonalLoop=1;jettySize=auto;html=1;exitX=0;exitY=0.5;exitDx=0;exitDy=0;" edge="1" parent="1" source="IzFt6nqaDhtdbvrA9WyH-27" target="IzFt6nqaDhtdbvrA9WyH-8">
          <mxGeometry relative="1" as="geometry" />
        </mxCell>
        <mxCell id="IzFt6nqaDhtdbvrA9WyH-27" value="i++" style="whiteSpace=wrap;html=1;" vertex="1" parent="1">
          <mxGeometry x="620" y="370" width="120" height="60" as="geometry" />
        </mxCell>
        <mxCell id="IzFt6nqaDhtdbvrA9WyH-39" value="end" style="ellipse;whiteSpace=wrap;html=1;rounded=0;" vertex="1" parent="1">
          <mxGeometry x="425" y="900" width="80" height="60" as="geometry" />
        </mxCell>
      </root>
    </mxGraphModel>
  </diagram>
  <diagram id="QU2xuT99stngurpiIIqL" name="Page-2">
    <mxGraphModel dx="1050" dy="629" grid="1" gridSize="10" guides="1" tooltips="1" connect="1" arrows="1" fold="1" page="1" pageScale="1" pageWidth="850" pageHeight="1100" math="0" shadow="0">
      <root>
        <mxCell id="0" />
        <mxCell id="1" parent="0" />
        <mxCell id="pPW6ZAKakvggMHBrvbYt-3" value="" style="edgeStyle=orthogonalEdgeStyle;rounded=0;orthogonalLoop=1;jettySize=auto;html=1;" edge="1" parent="1" source="pPW6ZAKakvggMHBrvbYt-1" target="pPW6ZAKakvggMHBrvbYt-2">
          <mxGeometry relative="1" as="geometry" />
        </mxCell>
        <mxCell id="pPW6ZAKakvggMHBrvbYt-1" value="start" style="ellipse;whiteSpace=wrap;html=1;" vertex="1" parent="1">
          <mxGeometry x="340" y="70" width="120" height="80" as="geometry" />
        </mxCell>
        <mxCell id="pPW6ZAKakvggMHBrvbYt-5" value="" style="edgeStyle=orthogonalEdgeStyle;rounded=0;orthogonalLoop=1;jettySize=auto;html=1;" edge="1" parent="1" source="pPW6ZAKakvggMHBrvbYt-2" target="pPW6ZAKakvggMHBrvbYt-4">
          <mxGeometry relative="1" as="geometry" />
        </mxCell>
        <mxCell id="pPW6ZAKakvggMHBrvbYt-2" value="a,b,c,x,y" style="shape=parallelogram;perimeter=parallelogramPerimeter;whiteSpace=wrap;html=1;fixedSize=1;" vertex="1" parent="1">
          <mxGeometry x="340" y="200" width="120" height="60" as="geometry" />
        </mxCell>
        <mxCell id="pPW6ZAKakvggMHBrvbYt-7" value="" style="edgeStyle=orthogonalEdgeStyle;rounded=0;orthogonalLoop=1;jettySize=auto;html=1;" edge="1" parent="1" source="pPW6ZAKakvggMHBrvbYt-4" target="pPW6ZAKakvggMHBrvbYt-6">
          <mxGeometry relative="1" as="geometry" />
        </mxCell>
        <mxCell id="pPW6ZAKakvggMHBrvbYt-4" value="nhap x (3 chu so)" style="whiteSpace=wrap;html=1;" vertex="1" parent="1">
          <mxGeometry x="340" y="300" width="120" height="60" as="geometry" />
        </mxCell>
        <mxCell id="pPW6ZAKakvggMHBrvbYt-9" value="" style="edgeStyle=orthogonalEdgeStyle;rounded=0;orthogonalLoop=1;jettySize=auto;html=1;" edge="1" parent="1" source="pPW6ZAKakvggMHBrvbYt-6" target="pPW6ZAKakvggMHBrvbYt-8">
          <mxGeometry relative="1" as="geometry" />
        </mxCell>
        <mxCell id="pPW6ZAKakvggMHBrvbYt-6" value="a = x/100&lt;br&gt;b=x/10%10&lt;br&gt;c=x%10" style="whiteSpace=wrap;html=1;" vertex="1" parent="1">
          <mxGeometry x="340" y="400" width="120" height="70" as="geometry" />
        </mxCell>
        <mxCell id="pPW6ZAKakvggMHBrvbYt-11" value="" style="edgeStyle=orthogonalEdgeStyle;rounded=0;orthogonalLoop=1;jettySize=auto;html=1;" edge="1" parent="1" source="pPW6ZAKakvggMHBrvbYt-8" target="pPW6ZAKakvggMHBrvbYt-10">
          <mxGeometry relative="1" as="geometry" />
        </mxCell>
        <mxCell id="pPW6ZAKakvggMHBrvbYt-8" value="y=a*a*a+b*b*b+c*c*c" style="whiteSpace=wrap;html=1;" vertex="1" parent="1">
          <mxGeometry x="340" y="510" width="120" height="60" as="geometry" />
        </mxCell>
        <mxCell id="pPW6ZAKakvggMHBrvbYt-13" value="" style="edgeStyle=orthogonalEdgeStyle;rounded=0;orthogonalLoop=1;jettySize=auto;html=1;" edge="1" parent="1" source="pPW6ZAKakvggMHBrvbYt-10" target="pPW6ZAKakvggMHBrvbYt-19">
          <mxGeometry relative="1" as="geometry">
            <mxPoint x="530" y="690" as="targetPoint" />
          </mxGeometry>
        </mxCell>
        <mxCell id="pPW6ZAKakvggMHBrvbYt-17" value="true" style="edgeLabel;html=1;align=center;verticalAlign=middle;resizable=0;points=[];" vertex="1" connectable="0" parent="pPW6ZAKakvggMHBrvbYt-13">
          <mxGeometry x="-0.464" y="-2" relative="1" as="geometry">
            <mxPoint as="offset" />
          </mxGeometry>
        </mxCell>
        <mxCell id="pPW6ZAKakvggMHBrvbYt-16" value="" style="edgeStyle=orthogonalEdgeStyle;rounded=0;orthogonalLoop=1;jettySize=auto;html=1;" edge="1" parent="1" source="pPW6ZAKakvggMHBrvbYt-10" target="pPW6ZAKakvggMHBrvbYt-20">
          <mxGeometry relative="1" as="geometry">
            <mxPoint x="280" y="690" as="targetPoint" />
          </mxGeometry>
        </mxCell>
        <mxCell id="pPW6ZAKakvggMHBrvbYt-18" value="false" style="edgeLabel;html=1;align=center;verticalAlign=middle;resizable=0;points=[];" vertex="1" connectable="0" parent="pPW6ZAKakvggMHBrvbYt-16">
          <mxGeometry x="-0.5289" y="2" relative="1" as="geometry">
            <mxPoint as="offset" />
          </mxGeometry>
        </mxCell>
        <mxCell id="pPW6ZAKakvggMHBrvbYt-10" value="y==x" style="rhombus;whiteSpace=wrap;html=1;" vertex="1" parent="1">
          <mxGeometry x="360" y="640" width="80" height="80" as="geometry" />
        </mxCell>
        <mxCell id="pPW6ZAKakvggMHBrvbYt-23" style="edgeStyle=orthogonalEdgeStyle;rounded=0;orthogonalLoop=1;jettySize=auto;html=1;exitX=0.5;exitY=1;exitDx=0;exitDy=0;" edge="1" parent="1" source="pPW6ZAKakvggMHBrvbYt-19" target="pPW6ZAKakvggMHBrvbYt-21">
          <mxGeometry relative="1" as="geometry" />
        </mxCell>
        <mxCell id="pPW6ZAKakvggMHBrvbYt-19" value="la so armstrong" style="rounded=0;whiteSpace=wrap;html=1;" vertex="1" parent="1">
          <mxGeometry x="510" y="670" width="120" height="60" as="geometry" />
        </mxCell>
        <mxCell id="pPW6ZAKakvggMHBrvbYt-22" value="" style="edgeStyle=orthogonalEdgeStyle;rounded=0;orthogonalLoop=1;jettySize=auto;html=1;" edge="1" parent="1" source="pPW6ZAKakvggMHBrvbYt-20" target="pPW6ZAKakvggMHBrvbYt-21">
          <mxGeometry relative="1" as="geometry">
            <Array as="points">
              <mxPoint x="210" y="770" />
              <mxPoint x="400" y="770" />
            </Array>
          </mxGeometry>
        </mxCell>
        <mxCell id="pPW6ZAKakvggMHBrvbYt-20" value="khong la so armstrong" style="rounded=0;whiteSpace=wrap;html=1;" vertex="1" parent="1">
          <mxGeometry x="150" y="670" width="120" height="60" as="geometry" />
        </mxCell>
        <mxCell id="pPW6ZAKakvggMHBrvbYt-25" value="" style="edgeStyle=orthogonalEdgeStyle;rounded=0;orthogonalLoop=1;jettySize=auto;html=1;" edge="1" parent="1" source="pPW6ZAKakvggMHBrvbYt-21" target="pPW6ZAKakvggMHBrvbYt-24">
          <mxGeometry relative="1" as="geometry" />
        </mxCell>
        <mxCell id="pPW6ZAKakvggMHBrvbYt-21" value="in kq ra man hinh" style="shape=parallelogram;perimeter=parallelogramPerimeter;whiteSpace=wrap;html=1;fixedSize=1;rounded=0;" vertex="1" parent="1">
          <mxGeometry x="340" y="810" width="120" height="60" as="geometry" />
        </mxCell>
        <mxCell id="pPW6ZAKakvggMHBrvbYt-24" value="end" style="ellipse;whiteSpace=wrap;html=1;rounded=0;" vertex="1" parent="1">
          <mxGeometry x="340" y="920" width="120" height="80" as="geometry" />
        </mxCell>
      </root>
    </mxGraphModel>
  </diagram>
  <diagram id="Uv_Kap-t7XnMKIQPNA03" name="Page-3">
    <mxGraphModel dx="1050" dy="629" grid="1" gridSize="10" guides="1" tooltips="1" connect="1" arrows="1" fold="1" page="1" pageScale="1" pageWidth="850" pageHeight="1100" math="0" shadow="0">
      <root>
        <mxCell id="0" />
        <mxCell id="1" parent="0" />
        <mxCell id="ogcF8YR4WmKuzf9S0ebU-3" style="edgeStyle=orthogonalEdgeStyle;rounded=0;orthogonalLoop=1;jettySize=auto;html=1;exitX=0.5;exitY=1;exitDx=0;exitDy=0;" edge="1" parent="1" source="ogcF8YR4WmKuzf9S0ebU-1" target="ogcF8YR4WmKuzf9S0ebU-2">
          <mxGeometry relative="1" as="geometry" />
        </mxCell>
        <mxCell id="ogcF8YR4WmKuzf9S0ebU-1" value="" style="ellipse;whiteSpace=wrap;html=1;" vertex="1" parent="1">
          <mxGeometry x="380" y="100" width="120" height="80" as="geometry" />
        </mxCell>
        <mxCell id="ogcF8YR4WmKuzf9S0ebU-5" value="" style="edgeStyle=orthogonalEdgeStyle;rounded=0;orthogonalLoop=1;jettySize=auto;html=1;" edge="1" parent="1" source="ogcF8YR4WmKuzf9S0ebU-2" target="ogcF8YR4WmKuzf9S0ebU-4">
          <mxGeometry relative="1" as="geometry" />
        </mxCell>
        <mxCell id="ogcF8YR4WmKuzf9S0ebU-2" value="goc,laixuat,laihangthang,lai,n,time" style="shape=parallelogram;perimeter=parallelogramPerimeter;whiteSpace=wrap;html=1;fixedSize=1;" vertex="1" parent="1">
          <mxGeometry x="315" y="210" width="250" height="40" as="geometry" />
        </mxCell>
        <mxCell id="ogcF8YR4WmKuzf9S0ebU-7" value="" style="edgeStyle=orthogonalEdgeStyle;rounded=0;orthogonalLoop=1;jettySize=auto;html=1;" edge="1" parent="1" source="ogcF8YR4WmKuzf9S0ebU-4" target="ogcF8YR4WmKuzf9S0ebU-6">
          <mxGeometry relative="1" as="geometry" />
        </mxCell>
        <mxCell id="ogcF8YR4WmKuzf9S0ebU-4" value="lai = o&lt;br&gt;nhap vao tien goc&lt;br&gt;nhap vao lai xuat hang thang&lt;br&gt;nhap vao so thang gui" style="whiteSpace=wrap;html=1;" vertex="1" parent="1">
          <mxGeometry x="350" y="290" width="180" height="60" as="geometry" />
        </mxCell>
        <mxCell id="ogcF8YR4WmKuzf9S0ebU-9" value="" style="edgeStyle=orthogonalEdgeStyle;rounded=0;orthogonalLoop=1;jettySize=auto;html=1;" edge="1" parent="1" source="ogcF8YR4WmKuzf9S0ebU-6" target="ogcF8YR4WmKuzf9S0ebU-8">
          <mxGeometry relative="1" as="geometry" />
        </mxCell>
        <mxCell id="ogcF8YR4WmKuzf9S0ebU-6" value="n=1" style="whiteSpace=wrap;html=1;" vertex="1" parent="1">
          <mxGeometry x="390" y="380" width="100" height="50" as="geometry" />
        </mxCell>
        <mxCell id="ogcF8YR4WmKuzf9S0ebU-11" value="" style="edgeStyle=orthogonalEdgeStyle;rounded=0;orthogonalLoop=1;jettySize=auto;html=1;" edge="1" parent="1" source="ogcF8YR4WmKuzf9S0ebU-8" target="ogcF8YR4WmKuzf9S0ebU-10">
          <mxGeometry relative="1" as="geometry" />
        </mxCell>
        <mxCell id="ogcF8YR4WmKuzf9S0ebU-18" value="true" style="edgeLabel;html=1;align=center;verticalAlign=middle;resizable=0;points=[];" vertex="1" connectable="0" parent="ogcF8YR4WmKuzf9S0ebU-11">
          <mxGeometry x="-0.616" y="1" relative="1" as="geometry">
            <mxPoint as="offset" />
          </mxGeometry>
        </mxCell>
        <mxCell id="ogcF8YR4WmKuzf9S0ebU-16" value="" style="edgeStyle=orthogonalEdgeStyle;rounded=0;orthogonalLoop=1;jettySize=auto;html=1;" edge="1" parent="1" source="ogcF8YR4WmKuzf9S0ebU-8" target="ogcF8YR4WmKuzf9S0ebU-15">
          <mxGeometry relative="1" as="geometry">
            <Array as="points">
              <mxPoint x="310" y="505" />
              <mxPoint x="310" y="850" />
            </Array>
          </mxGeometry>
        </mxCell>
        <mxCell id="ogcF8YR4WmKuzf9S0ebU-19" value="false" style="edgeLabel;html=1;align=center;verticalAlign=middle;resizable=0;points=[];" vertex="1" connectable="0" parent="ogcF8YR4WmKuzf9S0ebU-16">
          <mxGeometry x="-0.148" y="1" relative="1" as="geometry">
            <mxPoint as="offset" />
          </mxGeometry>
        </mxCell>
        <mxCell id="ogcF8YR4WmKuzf9S0ebU-8" value="n&amp;lt;time" style="rhombus;whiteSpace=wrap;html=1;" vertex="1" parent="1">
          <mxGeometry x="400" y="470" width="80" height="70" as="geometry" />
        </mxCell>
        <mxCell id="ogcF8YR4WmKuzf9S0ebU-13" value="" style="edgeStyle=orthogonalEdgeStyle;rounded=0;orthogonalLoop=1;jettySize=auto;html=1;" edge="1" parent="1" source="ogcF8YR4WmKuzf9S0ebU-10" target="ogcF8YR4WmKuzf9S0ebU-12">
          <mxGeometry relative="1" as="geometry" />
        </mxCell>
        <mxCell id="ogcF8YR4WmKuzf9S0ebU-10" value="&lt;div&gt;laihangthang = goc * laixuat&lt;/div&gt;&lt;div&gt;lai += laihangthang&lt;/div&gt;&lt;div&gt;&lt;span style=&quot;background-color: initial;&quot;&gt;&lt;span style=&quot;white-space: pre;&quot;&gt;&amp;nbsp;&lt;/span&gt;&lt;/span&gt;&lt;span style=&quot;background-color: initial;&quot;&gt;goc += laihangthang&lt;/span&gt;&lt;/div&gt;" style="whiteSpace=wrap;html=1;align=center;" vertex="1" parent="1">
          <mxGeometry x="345" y="570" width="190" height="60" as="geometry" />
        </mxCell>
        <mxCell id="ogcF8YR4WmKuzf9S0ebU-14" style="edgeStyle=orthogonalEdgeStyle;rounded=0;orthogonalLoop=1;jettySize=auto;html=1;exitX=1;exitY=0.5;exitDx=0;exitDy=0;" edge="1" parent="1" source="ogcF8YR4WmKuzf9S0ebU-12" target="ogcF8YR4WmKuzf9S0ebU-8">
          <mxGeometry relative="1" as="geometry">
            <Array as="points">
              <mxPoint x="570" y="710" />
              <mxPoint x="570" y="505" />
            </Array>
          </mxGeometry>
        </mxCell>
        <mxCell id="ogcF8YR4WmKuzf9S0ebU-12" value="n++" style="whiteSpace=wrap;html=1;" vertex="1" parent="1">
          <mxGeometry x="380" y="680" width="120" height="60" as="geometry" />
        </mxCell>
        <mxCell id="ogcF8YR4WmKuzf9S0ebU-15" value="end" style="ellipse;whiteSpace=wrap;html=1;" vertex="1" parent="1">
          <mxGeometry x="375" y="810" width="130" height="80" as="geometry" />
        </mxCell>
      </root>
    </mxGraphModel>
  </diagram>
  <diagram id="Z6N0oJPBSKWl1M8VxMCS" name="Page-4">
    <mxGraphModel dx="1050" dy="629" grid="1" gridSize="10" guides="1" tooltips="1" connect="1" arrows="1" fold="1" page="1" pageScale="1" pageWidth="850" pageHeight="1100" math="0" shadow="0">
      <root>
        <mxCell id="0" />
        <mxCell id="1" parent="0" />
        <mxCell id="xpbOLWerYxQDV-wl1dMb-3" style="edgeStyle=orthogonalEdgeStyle;rounded=0;orthogonalLoop=1;jettySize=auto;html=1;exitX=0.5;exitY=1;exitDx=0;exitDy=0;" edge="1" parent="1" source="xpbOLWerYxQDV-wl1dMb-1" target="xpbOLWerYxQDV-wl1dMb-2">
          <mxGeometry relative="1" as="geometry" />
        </mxCell>
        <mxCell id="xpbOLWerYxQDV-wl1dMb-1" value="start" style="ellipse;whiteSpace=wrap;html=1;" vertex="1" parent="1">
          <mxGeometry x="320" y="50" width="120" height="80" as="geometry" />
        </mxCell>
        <mxCell id="xpbOLWerYxQDV-wl1dMb-5" value="" style="edgeStyle=orthogonalEdgeStyle;rounded=0;orthogonalLoop=1;jettySize=auto;html=1;" edge="1" parent="1" source="xpbOLWerYxQDV-wl1dMb-2" target="xpbOLWerYxQDV-wl1dMb-4">
          <mxGeometry relative="1" as="geometry" />
        </mxCell>
        <mxCell id="xpbOLWerYxQDV-wl1dMb-2" value="n,i,sum=0,e" style="shape=parallelogram;perimeter=parallelogramPerimeter;whiteSpace=wrap;html=1;fixedSize=1;" vertex="1" parent="1">
          <mxGeometry x="320" y="180" width="120" height="60" as="geometry" />
        </mxCell>
        <mxCell id="xpbOLWerYxQDV-wl1dMb-7" value="" style="edgeStyle=orthogonalEdgeStyle;rounded=0;orthogonalLoop=1;jettySize=auto;html=1;" edge="1" parent="1" source="xpbOLWerYxQDV-wl1dMb-4" target="xpbOLWerYxQDV-wl1dMb-8">
          <mxGeometry relative="1" as="geometry">
            <mxPoint x="380" y="400" as="targetPoint" />
          </mxGeometry>
        </mxCell>
        <mxCell id="xpbOLWerYxQDV-wl1dMb-4" value="nhap so nguyen n&lt;br&gt;in ra cac lua chon&lt;br&gt;" style="whiteSpace=wrap;html=1;" vertex="1" parent="1">
          <mxGeometry x="310" y="290" width="140" height="60" as="geometry" />
        </mxCell>
        <mxCell id="xpbOLWerYxQDV-wl1dMb-8" value="nhap lua chon" style="rounded=0;whiteSpace=wrap;html=1;" vertex="1" parent="1">
          <mxGeometry x="320" y="400" width="120" height="60" as="geometry" />
        </mxCell>
      </root>
    </mxGraphModel>
  </diagram>
</mxfile>
